<svg width="50" height="50" viewBox="0 0 50 50" fill="none" xmlns="http://www.w3.org/2000/svg">
<g clip-path="url(#clip0_1333_20915)">
<path fill-rule="evenodd" clip-rule="evenodd" d="M46.875 25C46.875 30.8016 44.5703 36.3656 40.468 40.468C36.3656 44.5703 30.8016 46.875 25 46.875C19.1984 46.875 13.6344 44.5703 9.53204 40.468C5.42968 36.3656 3.125 30.8016 3.125 25C3.125 19.1984 5.42968 13.6344 9.53204 9.53204C13.6344 5.42968 19.1984 3.125 25 3.125C30.8016 3.125 36.3656 5.42968 40.468 9.53204C44.5703 13.6344 46.875 19.1984 46.875 25ZM0 25C0 31.6304 2.63392 37.9893 7.32233 42.6777C12.0107 47.3661 18.3696 50 25 50C31.6304 50 37.9893 47.3661 42.6777 42.6777C47.3661 37.9893 50 31.6304 50 25C50 18.3696 47.3661 12.0107 42.6777 7.32233C37.9893 2.63392 31.6304 0 25 0C18.3696 0 12.0107 2.63392 7.32233 7.32233C2.63392 12.0107 0 18.3696 0 25ZM14.0625 23.4375C13.6481 23.4375 13.2507 23.6021 12.9576 23.8951C12.6646 24.1882 12.5 24.5856 12.5 25C12.5 25.4144 12.6646 25.8118 12.9576 26.1049C13.2507 26.3979 13.6481 26.5625 14.0625 26.5625H32.1656L25.4562 33.2687C25.311 33.414 25.1957 33.5865 25.1171 33.7763C25.0385 33.9661 24.998 34.1696 24.998 34.375C24.998 34.5804 25.0385 34.7839 25.1171 34.9737C25.1957 35.1635 25.311 35.336 25.4562 35.4813C25.6015 35.6265 25.774 35.7418 25.9638 35.8204C26.1536 35.899 26.357 35.9395 26.5625 35.9395C26.768 35.9395 26.9714 35.899 27.1612 35.8204C27.351 35.7418 27.5235 35.6265 27.6688 35.4813L37.0438 26.1063C37.1893 25.9611 37.3047 25.7887 37.3835 25.5989C37.4622 25.409 37.5028 25.2055 37.5028 25C37.5028 24.7945 37.4622 24.591 37.3835 24.4011C37.3047 24.2113 37.1893 24.0389 37.0438 23.8937L27.6688 14.5187C27.3754 14.2254 26.9774 14.0605 26.5625 14.0605C26.1476 14.0605 25.7496 14.2254 25.4562 14.5187C25.1629 14.8121 24.998 15.2101 24.998 15.625C24.998 16.0399 25.1629 16.4379 25.4562 16.7313L32.1656 23.4375H14.0625Z" fill="white"/>
</g>
<defs>
<clipPath id="clip0_1333_20915">
<rect width="50" height="50" fill="white"/>
</clipPath>
</defs>
</svg>
