<svg width="12" height="12" viewBox="0 0 12 12" fill="none" xmlns="http://www.w3.org/2000/svg">
<path fill-rule="evenodd" clip-rule="evenodd" d="M9.53568 9.53493C8.0076 11.0632 5.74489 11.3933 3.89321 10.537C3.61985 10.427 3.39574 10.338 3.18269 10.338C2.58924 10.3415 1.85058 10.9169 1.46668 10.5335C1.08278 10.1495 1.65863 9.4103 1.65863 8.81327C1.65863 8.60019 1.57321 8.38008 1.46316 8.10619C0.606415 6.25481 0.937054 3.99134 2.46513 2.4636C4.4158 0.512216 7.58501 0.512216 9.53568 2.4631C11.4899 4.4175 11.4863 7.58405 9.53568 9.53493Z" stroke="#8A91A6" stroke-linecap="round" stroke-linejoin="round"/>
<path d="M7.96943 6.20654H7.97393" stroke="#8A91A6" stroke-linecap="round" stroke-linejoin="round"/>
<path d="M5.96552 6.20654H5.97002" stroke="#8A91A6" stroke-linecap="round" stroke-linejoin="round"/>
<path d="M3.96064 6.20654H3.96514" stroke="#8A91A6" stroke-linecap="round" stroke-linejoin="round"/>
</svg>
