<svg width="21" height="21" viewBox="0 0 21 21" fill="none" xmlns="http://www.w3.org/2000/svg">
<path d="M9.492 0.789062H5.753C2.678 0.789062 0.75 2.96606 0.75 6.04806V14.3621C0.75 17.4441 2.669 19.6211 5.753 19.6211H14.577C17.662 19.6211 19.581 17.4441 19.581 14.3621V10.3341" stroke="white" stroke-width="1.5" stroke-linecap="round" stroke-linejoin="round"/>
<path fill-rule="evenodd" clip-rule="evenodd" d="M6.82751 8.92099L14.3005 1.44799C15.2315 0.517988 16.7405 0.517988 17.6715 1.44799L18.8885 2.66499C19.8195 3.59599 19.8195 5.10599 18.8885 6.03599L11.3795 13.545C10.9725 13.952 10.4205 14.181 9.84451 14.181H6.09851L6.19251 10.401C6.20651 9.84499 6.43351 9.31499 6.82751 8.92099Z" stroke="white" stroke-width="1.5" stroke-linecap="round" stroke-linejoin="round"/>
<path d="M13.1649 2.60254L17.7309 7.16854" stroke="white" stroke-width="1.5" stroke-linecap="round" stroke-linejoin="round"/>
</svg>
