<svg width="21" height="21" viewBox="0 0 21 21" fill="none" xmlns="http://www.w3.org/2000/svg">
<path d="M9.492 0.789062H5.753C2.678 0.789062 0.75 2.96606 0.75 6.04806V14.3621C0.75 17.4441 2.669 19.6211 5.753 19.6211H14.577C17.662 19.6211 19.581 17.4441 19.581 14.3621V10.3341" stroke="#231D2C" stroke-width="1.5" stroke-linecap="round" stroke-linejoin="round"/>
<path fill-rule="evenodd" clip-rule="evenodd" d="M6.82739 8.9205L14.3004 1.4475C15.2314 0.5175 16.7404 0.5175 17.6714 1.4475L18.8884 2.6645C19.8194 3.5955 19.8194 5.1055 18.8884 6.0355L11.3794 13.5445C10.9724 13.9515 10.4204 14.1805 9.84439 14.1805H6.09839L6.19239 10.4005C6.20639 9.8445 6.43339 9.3145 6.82739 8.9205Z" stroke="#231D2C" stroke-width="1.5" stroke-linecap="round" stroke-linejoin="round"/>
<path d="M13.1648 2.60156L17.7308 7.16756" stroke="#231D2C" stroke-width="1.5" stroke-linecap="round" stroke-linejoin="round"/>
</svg>
