<svg width="20" height="20" viewBox="0 0 20 20" fill="none" xmlns="http://www.w3.org/2000/svg">
<path d="M10 19C14.9706 19 19 14.9706 19 10C19 5.02944 14.9706 1 10 1C5.02944 1 1 5.02944 1 10C1 14.9706 5.02944 19 10 19Z" stroke="#231D2C" stroke-width="1.5" stroke-linecap="round" stroke-linejoin="round"/>
<path d="M1.59961 7H18.3996M1.59961 13H18.3996M9.49961 1C7.81495 3.69961 6.92181 6.81787 6.92181 10C6.92181 13.1821 7.81495 16.3004 9.49961 19M10.4996 1C12.1843 3.69961 13.0774 6.81787 13.0774 10C13.0774 13.1821 12.1843 16.3004 10.4996 19" stroke="#231D2C" stroke-width="1.5" stroke-linecap="round" stroke-linejoin="round"/>
</svg>
