<svg xmlns="http://www.w3.org/2000/svg" height="24" viewBox="0 96 960 960" width="24" fill="#fff">
	<path
		d="M876 540q-77-77-178.5-120.5T480 376q-21 0-40.5 1.5T400 382L298 280q44-12 89.5-18t92.5-6q142 0 265 53t215 145l-84 86ZM716 698l-29-29-29-29-144-144q81 8 151.5 41T790 624l-74 74Zm74 302L414 622q-47 11-87.5 33T254 710l-84-86q32-32 69-56t79-42l-90-90q-41 21-76.5 46.5T84 540L0 454q32-32 66.5-57.5T140 348l-84-84 56-56 736 736-58 56Zm-310-64L339 794q27-27 63-42.5t78-15.5q42 0 78 15.5t63 42.5L480 936Z"/>
</svg>
