<svg width="24" height="24" viewBox="0 0 24 24" fill="none" xmlns="http://www.w3.org/2000/svg">
	<path
		d="M7.3418 19.9541H9.56836C9.99154 19.9541 10.3138 19.8434 10.5352 19.6221C10.7565 19.4007 10.8672 19.0752 10.8672 18.6455V5.34473C10.8672 4.90202 10.7565 4.57487 10.5352 4.36328C10.3138 4.15169 9.99154 4.0459 9.56836 4.0459H7.3418C6.91211 4.0459 6.58822 4.15658 6.37012 4.37793C6.15202 4.59928 6.04297 4.92155 6.04297 5.34473V18.6455C6.04297 19.0752 6.15202 19.4007 6.37012 19.6221C6.58822 19.8434 6.91211 19.9541 7.3418 19.9541ZM14.4414 19.9541H16.6582C17.0879 19.9541 17.4118 19.8434 17.6299 19.6221C17.848 19.4007 17.9571 19.0752 17.9571 18.6455V5.34473C17.9571 4.90202 17.848 4.57487 17.6299 4.36328C17.4118 4.15169 17.0879 4.0459 16.6582 4.0459H14.4414C14.0117 4.0459 13.6862 4.15658 13.4648 4.37793C13.2435 4.59928 13.1328 4.92155 13.1328 5.34473V18.6455C13.1328 19.0752 13.2435 19.4007 13.4648 19.6221C13.6862 19.8434 14.0117 19.9541 14.4414 19.9541Z"
		fill="white"/>
</svg>
