<svg width="43" height="32" viewBox="0 0 43 32" fill="none" xmlns="http://www.w3.org/2000/svg">
<path opacity="0.5" d="M20.0004 2.34555L17.1736 0C6.53155 6.03141 1.54309 12.9005 0.212832 20.6073C-0.784862 26.9738 1.70937 32 8.0281 32C12.5177 32 16.8411 28.9843 17.8388 23.9581C18.6702 18.0942 15.3445 14.5759 11.1875 13.7382C12.8503 8.04189 19.8341 2.34555 20.0004 2.34555ZM34.3007 13.4031C36.1298 7.87436 42.7811 2.34555 42.9474 2.34555L40.1206 0C29.4785 6.03141 24.49 12.9005 23.1598 20.6073C22.1621 26.9738 24.6563 32 30.975 32C35.4647 32 39.788 28.9843 40.6194 23.9581C41.6171 18.0942 38.4577 14.2408 34.3007 13.4031Z" fill="#2F48D1"/>
</svg>
