<svg width="20" height="17" viewBox="0 0 20 17" fill="none" xmlns="http://www.w3.org/2000/svg">
<path fill-rule="evenodd" clip-rule="evenodd" d="M10.0001 5.64133C8.67011 5.64133 7.58911 6.72333 7.58911 8.05333C7.58911 9.38233 8.67011 10.4633 10.0001 10.4633C11.3301 10.4633 12.4121 9.38233 12.4121 8.05333C12.4121 6.72333 11.3301 5.64133 10.0001 5.64133ZM10.0001 11.9633C7.84311 11.9633 6.08911 10.2093 6.08911 8.05333C6.08911 5.89633 7.84311 4.14133 10.0001 4.14133C12.1571 4.14133 13.9121 5.89633 13.9121 8.05333C13.9121 10.2093 12.1571 11.9633 10.0001 11.9633Z" fill="#828CB1"/>
<mask id="mask0_1902_13796" style="mask-type:alpha" maskUnits="userSpaceOnUse" x="0" y="0" width="20" height="17">
<path fill-rule="evenodd" clip-rule="evenodd" d="M0.000244141 0.000213623H20.0001V16.1052H0.000244141V0.000213623Z" fill="white"/>
</mask>
<g mask="url(#mask0_1902_13796)">
<path fill-rule="evenodd" clip-rule="evenodd" d="M1.56958 8.05249C3.42958 12.1615 6.56258 14.6045 9.99958 14.6055C13.4366 14.6045 16.5696 12.1615 18.4296 8.05249C16.5696 3.94449 13.4366 1.50149 9.99958 1.50049C6.56358 1.50149 3.42958 3.94449 1.56958 8.05249ZM10.002 16.1055H9.99799H9.99699C5.86099 16.1025 2.14699 13.2035 0.0609941 8.34851C-0.0200059 8.15951 -0.0200059 7.94551 0.0609941 7.75651C2.14699 2.90251 5.86199 0.00350586 9.99699 0.000505859C9.99899 -0.000494141 9.99899 -0.000494141 9.99999 0.000505859C10.002 -0.000494141 10.002 -0.000494141 10.003 0.000505859C14.139 0.00350586 17.853 2.90251 19.939 7.75651C20.021 7.94551 20.021 8.15951 19.939 8.34851C17.854 13.2035 14.139 16.1025 10.003 16.1055H10.002Z" fill="#828CB1"/>
</g>
</svg>
