<svg xmlns="http://www.w3.org/2000/svg" width="700pt" height="700pt"
		 version="1.1" viewBox="0 0 700 700">
	<defs>
		<symbol id="v" overflow="visible">
			<path
				d="m1.8281-0.10938c-0.09375 0.054688-0.19531 0.089844-0.29688 0.10938-0.09375 0.019531-0.19922 0.03125-0.3125 0.03125-0.33594 0-0.60156-0.085938-0.79688-0.26562-0.1875-0.1875-0.28125-0.44141-0.28125-0.76562 0-0.3125 0.09375-0.5625 0.28125-0.75 0.19531-0.1875 0.46094-0.28125 0.79688-0.28125 0.11328 0 0.21875 0.015625 0.3125 0.046875 0.10156 0.023437 0.20312 0.058594 0.29688 0.10938v0.40625c-0.09375-0.0625-0.1875-0.10938-0.28125-0.14062s-0.19531-0.046875-0.29688-0.046875c-0.17969 0-0.32031 0.0625-0.42188 0.1875-0.10547 0.11719-0.15625 0.27344-0.15625 0.46875 0 0.21094 0.050781 0.375 0.15625 0.5 0.10156 0.11719 0.24219 0.17188 0.42188 0.17188 0.10156 0 0.20312-0.015625 0.29688-0.046875s0.1875-0.078125 0.28125-0.14062z"/>
		</symbol>
		<symbol id="f" overflow="visible">
			<path
				d="m1.3438-1.0938c-0.042969-0.019531-0.085938-0.03125-0.125-0.03125-0.042969-0.007812-0.085938-0.015625-0.125-0.015625-0.125 0-0.22656 0.042969-0.29688 0.125-0.0625 0.074219-0.09375 0.18359-0.09375 0.32812v0.6875h-0.46875v-1.5h0.46875v0.25c0.0625-0.09375 0.12891-0.16016 0.20312-0.20312 0.082031-0.050781 0.17969-0.078125 0.29688-0.078125h0.046875c0.019531 0 0.050781 0.007812 0.09375 0.015625z"/>
		</symbol>
		<symbol id="a" overflow="visible">
			<path
				d="m1.7188-0.75v0.14062h-1.1094c0.007813 0.10547 0.046875 0.1875 0.10938 0.25 0.070312 0.054687 0.17188 0.078125 0.29688 0.078125 0.10156 0 0.20703-0.015625 0.3125-0.046875 0.10156-0.03125 0.21094-0.070313 0.32812-0.125v0.35938c-0.11719 0.042969-0.23047 0.074219-0.34375 0.09375-0.11719 0.019531-0.23047 0.03125-0.34375 0.03125-0.27344 0-0.48047-0.066406-0.625-0.20312-0.14844-0.13281-0.21875-0.32812-0.21875-0.57812 0-0.23828 0.070312-0.42578 0.21875-0.5625 0.14453-0.14453 0.34766-0.21875 0.60938-0.21875 0.22656 0 0.41016 0.074219 0.54688 0.21875 0.14453 0.13672 0.21875 0.32422 0.21875 0.5625zm-0.48438-0.15625c0-0.09375-0.027344-0.16406-0.078125-0.21875-0.054688-0.0625-0.125-0.09375-0.21875-0.09375-0.085938 0-0.15625 0.027344-0.21875 0.078125-0.0625 0.054687-0.10156 0.13281-0.10938 0.23438z"/>
		</symbol>
		<symbol id="e" overflow="visible">
			<path
				d="m0.90625-0.67188c-0.10547 0-0.18359 0.015625-0.23438 0.046875-0.054687 0.03125-0.078125 0.085938-0.078125 0.15625 0 0.0625 0.019531 0.10938 0.0625 0.14062 0.039062 0.03125 0.097656 0.046875 0.17188 0.046875 0.09375 0 0.16406-0.03125 0.21875-0.09375 0.0625-0.0625 0.09375-0.14453 0.09375-0.25v-0.046875zm0.71875-0.1875v0.85938h-0.48438v-0.21875c-0.0625 0.09375-0.13672 0.16406-0.21875 0.20312-0.074219 0.03125-0.16797 0.046875-0.28125 0.046875-0.15625 0-0.28125-0.039062-0.375-0.125-0.09375-0.09375-0.14062-0.21094-0.14062-0.35938 0-0.17578 0.054688-0.30078 0.17188-0.375 0.125-0.082031 0.3125-0.125 0.5625-0.125h0.28125v-0.046875c0-0.070312-0.03125-0.125-0.09375-0.15625-0.054687-0.039062-0.14062-0.0625-0.26562-0.0625-0.10547 0-0.20312 0.011719-0.29688 0.03125-0.085937 0.023438-0.16406 0.054688-0.23438 0.09375v-0.35938c0.10156-0.03125 0.20703-0.050781 0.3125-0.0625 0.10156-0.007813 0.20312-0.015625 0.29688-0.015625 0.26953 0 0.46094 0.054688 0.57812 0.15625 0.125 0.10547 0.1875 0.27734 0.1875 0.51562z"/>
		</symbol>
		<symbol id="d" overflow="visible">
			<path
				d="m0.75-1.9219v0.42188h0.5v0.34375h-0.5v0.64062c0 0.0625 0.007812 0.10938 0.03125 0.14062 0.03125 0.023438 0.085938 0.03125 0.17188 0.03125h0.25v0.34375h-0.40625c-0.1875 0-0.32422-0.035156-0.40625-0.10938-0.074219-0.082031-0.10938-0.21875-0.10938-0.40625v-0.64062h-0.25v-0.34375h0.25v-0.42188z"/>
		</symbol>
		<symbol id="k" overflow="visible">
			<path
				d="m1.25-1.2812v-0.79688h0.48438v2.0781h-0.48438v-0.21875c-0.074219 0.09375-0.15234 0.16406-0.23438 0.20312-0.074219 0.03125-0.16406 0.046875-0.26562 0.046875-0.17969 0-0.32812-0.070312-0.45312-0.21875-0.11719-0.14453-0.17188-0.33203-0.17188-0.5625 0-0.22656 0.054688-0.41406 0.17188-0.5625 0.125-0.14453 0.27344-0.21875 0.45312-0.21875 0.10156 0 0.19141 0.023438 0.26562 0.0625 0.082031 0.042969 0.16016 0.10547 0.23438 0.1875zm-0.3125 0.96875c0.09375 0 0.16406-0.035156 0.21875-0.10938 0.0625-0.070313 0.09375-0.17969 0.09375-0.32812 0-0.13281-0.03125-0.23828-0.09375-0.3125-0.054688-0.082031-0.125-0.125-0.21875-0.125-0.10547 0-0.18359 0.042969-0.23438 0.125-0.054687 0.074219-0.078125 0.17969-0.078125 0.3125 0 0.14844 0.023438 0.25781 0.078125 0.32812 0.050781 0.074219 0.12891 0.10938 0.23438 0.10938z"/>
		</symbol>
		<symbol id="j" overflow="visible">
			<path
				d="m1.0312-0.3125c0.09375 0 0.16406-0.035156 0.21875-0.10938 0.0625-0.070313 0.09375-0.17969 0.09375-0.32812 0-0.13281-0.03125-0.23828-0.09375-0.3125-0.054688-0.082031-0.125-0.125-0.21875-0.125-0.10547 0-0.1875 0.042969-0.25 0.125-0.054688 0.074219-0.078125 0.17969-0.078125 0.3125 0 0.14844 0.023437 0.25781 0.078125 0.32812 0.0625 0.074219 0.14453 0.10938 0.25 0.10938zm-0.32812-0.96875c0.070313-0.082031 0.14453-0.14453 0.21875-0.1875 0.082031-0.039062 0.17578-0.0625 0.28125-0.0625 0.1875 0 0.33594 0.074219 0.45312 0.21875 0.11328 0.14844 0.17188 0.33594 0.17188 0.5625 0 0.23047-0.058594 0.41797-0.17188 0.5625-0.11719 0.14844-0.26562 0.21875-0.45312 0.21875-0.10547 0-0.19922-0.015625-0.28125-0.046875-0.074219-0.039062-0.14844-0.10938-0.21875-0.20312v0.21875h-0.46875v-2.0781h0.46875z"/>
		</symbol>
		<symbol id="i" overflow="visible">
			<path
				d="m0.03125-1.5h0.48438l0.39062 1.0156 0.34375-1.0156h0.48438l-0.625 1.6406c-0.0625 0.16406-0.14062 0.28125-0.23438 0.34375-0.085938 0.070313-0.19531 0.10938-0.32812 0.10938h-0.26562v-0.3125h0.14062c0.082031 0 0.14062-0.015625 0.17188-0.046875 0.039062-0.023437 0.070312-0.070313 0.09375-0.14062l0.015625-0.03125z"/>
		</symbol>
		<symbol id="c" overflow="visible">
			<path
				d="m1.3906-1.4531v0.375c-0.09375-0.050781-0.19531-0.085937-0.29688-0.10938-0.09375-0.019531-0.18359-0.03125-0.26562-0.03125-0.085937 0-0.15234 0.015625-0.20312 0.046875-0.042969 0.023437-0.0625 0.054687-0.0625 0.09375 0 0.042969 0.015625 0.074219 0.046875 0.09375 0.03125 0.023437 0.09375 0.039063 0.1875 0.046875l0.078125 0.015625c0.25 0.03125 0.41406 0.085937 0.5 0.15625 0.082031 0.0625 0.125 0.17188 0.125 0.32812s-0.0625 0.27734-0.1875 0.35938c-0.11719 0.074219-0.28906 0.10938-0.51562 0.10938-0.10547 0-0.21094-0.011719-0.3125-0.03125-0.10547-0.0078125-0.21094-0.03125-0.3125-0.0625v-0.35938c0.09375 0.054687 0.1875 0.089844 0.28125 0.10938 0.10156 0.023438 0.20703 0.03125 0.3125 0.03125 0.09375 0 0.16016-0.007812 0.20312-0.03125 0.050781-0.03125 0.078125-0.070312 0.078125-0.125 0-0.039062-0.015625-0.070312-0.046875-0.09375-0.03125-0.019531-0.10156-0.035156-0.20312-0.046875l-0.078125-0.015625c-0.21875-0.019531-0.37109-0.066406-0.45312-0.14062-0.085937-0.070313-0.125-0.17969-0.125-0.32812 0-0.15625 0.050781-0.26953 0.15625-0.34375 0.11328-0.082031 0.28125-0.125 0.5-0.125 0.09375 0 0.1875 0.011719 0.28125 0.03125 0.10156 0.011719 0.20703 0.027344 0.3125 0.046875z"/>
		</symbol>
		<symbol id="b" overflow="visible">
			<path
				d="m1.7344-0.90625v0.90625h-0.48438v-0.6875c0-0.13281-0.007812-0.22266-0.015625-0.26562 0-0.050781-0.007813-0.09375-0.015625-0.125-0.023438-0.03125-0.046875-0.050781-0.078125-0.0625-0.03125-0.019531-0.070313-0.03125-0.10938-0.03125-0.10547 0-0.1875 0.042969-0.25 0.125-0.054688 0.074219-0.078125 0.17969-0.078125 0.3125v0.73438h-0.46875v-2.0781h0.46875v0.79688c0.070313-0.082031 0.14844-0.14453 0.23438-0.1875 0.082031-0.039062 0.17188-0.0625 0.26562-0.0625 0.17578 0 0.30469 0.054688 0.39062 0.15625 0.09375 0.10547 0.14062 0.26172 0.14062 0.46875z"/>
		</symbol>
		<symbol id="h" overflow="visible">
			<path
				d="m1.7344-0.90625v0.90625h-0.48438v-0.70312c0-0.125-0.007812-0.20703-0.015625-0.25 0-0.050781-0.007813-0.09375-0.015625-0.125-0.023438-0.03125-0.046875-0.050781-0.078125-0.0625-0.03125-0.019531-0.070313-0.03125-0.10938-0.03125-0.10547 0-0.1875 0.042969-0.25 0.125-0.054688 0.074219-0.078125 0.17969-0.078125 0.3125v0.73438h-0.46875v-1.5h0.46875v0.21875c0.070313-0.082031 0.14844-0.14453 0.23438-0.1875 0.082031-0.039062 0.17188-0.0625 0.26562-0.0625 0.17578 0 0.30469 0.054688 0.39062 0.15625 0.09375 0.10547 0.14062 0.26172 0.14062 0.46875z"/>
		</symbol>
		<symbol id="u" overflow="visible">
			<path
				d="m0.23438-2.0781h0.46875v1.125l0.54688-0.54688h0.5625l-0.73438 0.6875 0.79688 0.8125h-0.57812l-0.59375-0.625v0.625h-0.46875z"/>
		</symbol>
		<symbol id="t" overflow="visible">
			<path d="m0.23438-1.5h0.46875v1.5h-0.46875zm0-0.57812h0.46875v0.39062h-0.46875z"/>
		</symbol>
		<symbol id="s" overflow="visible">
			<path
				d="m1.25-0.25c-0.074219 0.085938-0.15234 0.14844-0.23438 0.1875-0.074219 0.042969-0.16406 0.0625-0.26562 0.0625-0.17969 0-0.32812-0.070312-0.45312-0.21875-0.11719-0.14453-0.17188-0.32812-0.17188-0.54688s0.054688-0.39844 0.17188-0.54688c0.125-0.14453 0.27344-0.21875 0.45312-0.21875 0.10156 0 0.19141 0.023438 0.26562 0.0625 0.082031 0.042969 0.16016 0.10547 0.23438 0.1875v-0.21875h0.48438v1.3438c0 0.23828-0.078125 0.42188-0.23438 0.54688-0.15625 0.13281-0.375 0.20312-0.65625 0.20312-0.09375 0-0.1875-0.011719-0.28125-0.03125-0.085938-0.011719-0.16797-0.03125-0.25-0.0625v-0.375c0.082031 0.050781 0.16016 0.085938 0.23438 0.10938 0.082031 0.03125 0.16406 0.046875 0.25 0.046875 0.15625 0 0.26953-0.039062 0.34375-0.10938 0.070313-0.074219 0.10938-0.17969 0.10938-0.32812zm-0.3125-0.9375c-0.10547 0-0.18359 0.039062-0.23438 0.10938-0.054687 0.074219-0.078125 0.17969-0.078125 0.3125 0 0.13672 0.023438 0.24219 0.078125 0.3125 0.050781 0.074219 0.12891 0.10938 0.23438 0.10938 0.09375 0 0.16406-0.035156 0.21875-0.10938 0.0625-0.070313 0.09375-0.17578 0.09375-0.3125 0-0.13281-0.03125-0.23828-0.09375-0.3125-0.054688-0.070313-0.125-0.10938-0.21875-0.10938z"/>
		</symbol>
		<symbol id="r" overflow="visible">
			<path
				d="m1.2188-2.0781v0.3125h-0.26562c-0.074219 0-0.125 0.015625-0.15625 0.046875-0.023437 0.023438-0.03125 0.0625-0.03125 0.125v0.09375h0.40625v0.34375h-0.40625v1.1562h-0.46875v-1.1562h-0.25v-0.34375h0.25v-0.09375c0-0.16406 0.039063-0.28516 0.125-0.35938 0.09375-0.082031 0.23438-0.125 0.42188-0.125z"/>
		</symbol>
		<symbol id="g" overflow="visible">
			<path
				d="m0.9375-1.1875c-0.10547 0-0.1875 0.039062-0.25 0.10938-0.054688 0.074219-0.078125 0.18359-0.078125 0.32812 0 0.14844 0.023437 0.26172 0.078125 0.34375 0.0625 0.074219 0.14453 0.10938 0.25 0.10938 0.10156 0 0.17969-0.035156 0.23438-0.10938 0.0625-0.082031 0.09375-0.19531 0.09375-0.34375 0-0.14453-0.03125-0.25391-0.09375-0.32812-0.054687-0.070313-0.13281-0.10938-0.23438-0.10938zm0-0.34375c0.25781 0 0.46094 0.074219 0.60938 0.21875 0.14453 0.13672 0.21875 0.32422 0.21875 0.5625 0 0.25-0.074219 0.44531-0.21875 0.57812-0.14844 0.13672-0.35156 0.20312-0.60938 0.20312-0.26172 0-0.46484-0.066406-0.60938-0.20312-0.13672-0.13281-0.20312-0.32812-0.20312-0.57812 0-0.23828 0.066406-0.42578 0.20312-0.5625 0.14453-0.14453 0.34766-0.21875 0.60938-0.21875z"/>
		</symbol>
		<symbol id="q" overflow="visible">
			<path
				d="m1.6094-1.25c0.0625-0.09375 0.13281-0.16016 0.21875-0.20312 0.082031-0.050781 0.17578-0.078125 0.28125-0.078125 0.16406 0 0.29688 0.054688 0.39062 0.15625 0.09375 0.10547 0.14062 0.26172 0.14062 0.46875v0.90625h-0.48438v-0.78125-0.03125-0.0625c0-0.10156-0.015625-0.17578-0.046875-0.21875-0.03125-0.050781-0.085937-0.078125-0.15625-0.078125-0.085937 0-0.15234 0.039063-0.20312 0.10938-0.054688 0.074219-0.078125 0.18359-0.078125 0.32812v0.73438h-0.48438v-0.78125c0-0.16406-0.015625-0.26953-0.046875-0.3125-0.023437-0.050781-0.070313-0.078125-0.14062-0.078125-0.09375 0-0.16797 0.042969-0.21875 0.125-0.054688 0.074219-0.078125 0.17969-0.078125 0.3125v0.73438h-0.46875v-1.5h0.46875v0.21875c0.0625-0.082031 0.12891-0.14453 0.20312-0.1875 0.082031-0.039062 0.16406-0.0625 0.25-0.0625 0.10156 0 0.19141 0.027344 0.26562 0.078125 0.082031 0.054687 0.14453 0.12109 0.1875 0.20312z"/>
		</symbol>
		<symbol id="p" overflow="visible">
			<path d="m0.25-2h0.57812l0.71875 1.375v-1.375h0.48438v2h-0.5625l-0.73438-1.375v1.375h-0.48438z"/>
		</symbol>
		<symbol id="o" overflow="visible">
			<path
				d="m0.21875-0.57812v-0.92188h0.46875v0.15625 0.3125 0.23438 0.26562c0.007812 0.054688 0.023438 0.089844 0.046875 0.10938 0.019531 0.03125 0.046875 0.058594 0.078125 0.078125 0.03125 0.011719 0.066406 0.015625 0.10938 0.015625 0.09375 0 0.16406-0.035156 0.21875-0.10938 0.0625-0.070312 0.09375-0.17578 0.09375-0.3125v-0.75h0.48438v1.5h-0.48438v-0.21875c-0.074219 0.09375-0.15234 0.16406-0.23438 0.20312-0.074219 0.03125-0.15625 0.046875-0.25 0.046875-0.17969 0-0.3125-0.050781-0.40625-0.15625-0.085938-0.10156-0.125-0.25391-0.125-0.45312z"/>
		</symbol>
		<symbol id="n" overflow="visible">
			<path
				d="m0.25-2h0.85938c0.25 0 0.44141 0.058594 0.57812 0.17188 0.13281 0.11719 0.20312 0.27734 0.20312 0.48438 0 0.21094-0.070313 0.37109-0.20312 0.48438-0.13672 0.11719-0.32812 0.17188-0.57812 0.17188h-0.34375v0.6875h-0.51562zm0.51562 0.375v0.5625h0.28125c0.10156 0 0.17969-0.019531 0.23438-0.0625 0.050781-0.050781 0.078125-0.125 0.078125-0.21875s-0.027344-0.16016-0.078125-0.20312c-0.054688-0.050781-0.13281-0.078125-0.23438-0.078125z"/>
		</symbol>
		<symbol id="m" overflow="visible">
			<path
				d="m0.23438-1.5h0.46875v1.4688c0 0.20703-0.046875 0.36328-0.14062 0.46875-0.09375 0.10156-0.23438 0.15625-0.42188 0.15625h-0.23438v-0.3125h0.078125c0.09375 0 0.15625-0.023438 0.1875-0.0625 0.039063-0.042969 0.0625-0.125 0.0625-0.25zm0-0.57812h0.46875v0.39062h-0.46875z"/>
		</symbol>
		<symbol id="l" overflow="visible">
			<path
				d="m1.4375-1.4531v0.39062c-0.0625-0.039062-0.13281-0.070312-0.20312-0.09375-0.0625-0.019531-0.13281-0.03125-0.20312-0.03125-0.125 0-0.23047 0.042969-0.3125 0.125-0.074219 0.074219-0.10938 0.17969-0.10938 0.3125 0 0.14844 0.035156 0.26172 0.10938 0.34375 0.082031 0.074219 0.1875 0.10938 0.3125 0.10938 0.082031 0 0.15625-0.007813 0.21875-0.03125 0.070312-0.03125 0.13281-0.066406 0.1875-0.10938v0.39062c-0.074219 0.03125-0.15234 0.050781-0.23438 0.0625-0.074219 0.0078125-0.14844 0.015625-0.21875 0.015625-0.27344 0-0.48438-0.066406-0.64062-0.20312-0.14844-0.13281-0.21875-0.32812-0.21875-0.57812 0-0.23828 0.070312-0.42578 0.21875-0.5625 0.15625-0.14453 0.36719-0.21875 0.64062-0.21875 0.070313 0 0.14453 0.011719 0.21875 0.03125 0.082031 0.011719 0.16016 0.027344 0.23438 0.046875z"/>
		</symbol>
	</defs>
	<g>
		<path
			d="m382.1 476.6h-23.023-55.07-66.281-56.602c-8.6953 0-17.391 0.054688-26.031 0-1.5859 0-3.1172-0.10937-4.6484-0.32812 1.4766 0.21875 2.8984 0.38281 4.375 0.60156-2.8984-0.4375-5.7422-1.2031-8.4219-2.3516 1.3125 0.54687 2.625 1.0938 3.9375 1.6406-1.8594-0.82031-3.6641-1.75-5.3594-2.8984-0.38281-0.27344-0.76562-0.54688-1.1484-0.82031-1.4766-0.92969 2.8984 2.4609 1.6406 1.2578-0.76562-0.76562-1.6406-1.4219-2.3516-2.1328-0.65625-0.65625-1.2578-1.4219-1.9141-2.0781-1.5312-1.6406 1.3125 1.6406 1.2578 1.6406-0.10938 0-0.76563-1.0391-0.82031-1.1484-1.2031-1.8047-2.2422-3.6641-3.0625-5.6875l1.6406 3.9375c-1.1484-2.7344-1.9141-5.5234-2.3516-8.4219 0.21875 1.4766 0.38281 2.8984 0.60156 4.375-0.92969-7.4375-0.32812-15.203-0.32812-22.695v-47.141-57.586-49.438c0-7.5469-0.054687-15.094 0-22.586 0-1.5312 0.10938-3.0625 0.32812-4.6484-0.21875 1.4766-0.38281 2.8984-0.60156 4.375 0.4375-2.8984 1.2031-5.7422 2.3516-8.4219l-1.6406 3.9375c0.82031-1.8594 1.75-3.6641 2.8984-5.3594 0.27344-0.38281 0.54688-0.76562 0.82031-1.1484 0.92969-1.4766-2.4609 2.8984-1.2578 1.6406 0.76563-0.76563 1.4219-1.6406 2.1328-2.3516 0.65625-0.65625 1.4219-1.2578 2.0781-1.9141 1.6406-1.5312-1.6406 1.3125-1.6406 1.2578 0-0.10938 1.0391-0.76562 1.1484-0.82031 1.8047-1.2031 3.6641-2.2422 5.6875-3.0625-1.3125 0.54688-2.625 1.0938-3.9375 1.6406 2.7344-1.1484 5.5234-1.9141 8.4219-2.3516-1.4766 0.21875-2.8984 0.38281-4.375 0.60156 3.2266-0.38281 6.4531-0.32813 9.6797-0.32813h16.133 54.961 66.773 57.367c8.8594 0 17.719-0.054687 26.578 0 1.5859 0 3.1172 0.10938 4.6484 0.32813-1.4766-0.21875-2.8984-0.38281-4.375-0.60156 2.8984 0.4375 5.7422 1.2031 8.4219 2.3516-1.3125-0.54688-2.625-1.0938-3.9375-1.6406 1.8594 0.82031 3.6641 1.75 5.3594 2.8984 0.38281 0.27344 0.76563 0.54688 1.1484 0.82031 1.4766 0.92969-2.8984-2.4609-1.6406-1.2578 0.76562 0.76562 1.6406 1.4219 2.3516 2.1328 0.65625 0.65625 1.2578 1.4219 1.9141 2.0781 1.5312 1.6406-1.3125-1.6406-1.2578-1.6406 0.10937 0 0.76562 1.0391 0.82031 1.1484 1.2031 1.8047 2.2422 3.6641 3.0625 5.6875l-1.6406-3.9375c1.1484 2.7344 1.9141 5.5234 2.3516 8.4219-0.21875-1.4766-0.38281-2.8984-0.60156-4.375 0.92969 7.4375 0.32812 15.203 0.32812 22.695v47.141 57.586 49.438c0 7.5469 0.054688 15.094 0 22.586 0 1.5312-0.10938 3.0625-0.32812 4.6484 0.21875-1.4766 0.38281-2.8984 0.60156-4.375-0.4375 2.8984-1.2031 5.7422-2.3516 8.4219l1.6406-3.9375c-0.82031 1.8594-1.75 3.6641-2.8984 5.3594-0.27344 0.38281-0.54687 0.76562-0.82031 1.1484-0.92969 1.4766 2.4609-2.8984 1.2578-1.6406-0.76562 0.76562-1.4219 1.6406-2.1328 2.3516-0.65625 0.65625-1.4219 1.2578-2.0781 1.9141-1.6406 1.5312 1.6406-1.3125 1.6406-1.2578 0 0.10938-1.0391 0.76562-1.1484 0.82031-1.8047 1.2031-3.6641 2.2422-5.6875 3.0625 1.3125-0.54687 2.625-1.0938 3.9375-1.6406-2.7344 1.1484-5.5234 1.9141-8.4219 2.3516 1.4766-0.21875 2.8984-0.38281 4.375-0.60156-1.4766 0.21875-2.9531 0.27344-4.4844 0.32812-8.5859 0.10938-16.789 7.4922-16.406 16.406 0.38281 8.8047 7.2188 16.516 16.406 16.406 22.039-0.27344 41.727-14.984 47.906-36.203 1.75-6.0703 1.8594-12.195 1.8594-18.43v-45.883-68.195-58.297c0-15.312 1.2031-30.898-7.7656-44.461-9.5156-14.328-25.102-23.078-42.383-23.188h-9.625-48.672-68.031-63.547-35.328c-12.578 0-23.734 3.9922-33.578 11.758-11.594 9.2422-17.773 24.117-17.828 38.719v35.656 65.789 63.656c0 9.7344-0.10938 19.523 0 29.258 0.21875 21.602 14 39.977 34.125 47.195 6.2344 2.2422 12.906 2.5703 19.469 2.5703h40.414 65.516 66.828 44.297 6.2891c8.5859 0 16.789-7.5469 16.406-16.406-0.32812-8.8594-7.1094-16.352-16.352-16.352z"/>
		<path
			d="m586.69 475.95c-12.031-9.0234-24.062-18.047-36.094-27.016-19.086-14.328-38.227-28.602-57.312-42.93-4.375-3.2812-8.8047-6.6172-13.18-9.8984 2.7344 4.7031 5.4141 9.4609 8.1484 14.164v-32.594-51.68-12.031c-2.7344 4.7031-5.4141 9.4609-8.1484 14.164 12.031-9.0234 24.062-18.047 36.094-27.016 19.086-14.328 38.227-28.602 57.312-42.93 4.375-3.2812 8.8047-6.6172 13.18-9.8984-8.2031-4.7031-16.461-9.4609-24.664-14.164v25.539 61.086 74.102 63.82c0 10.336-0.21875 20.672 0 31.008v0.4375c0 8.5859 7.5469 16.789 16.406 16.406 8.9141-0.38281 16.406-7.2188 16.406-16.406v-25.539-61.086-74.102-63.82c0-10.336 0.21875-20.672 0-31.008v-0.4375c0-5.7969-3.1172-11.266-8.1484-14.164-4.6484-2.6797-12.031-3.3906-16.57 0-19.797 14.82-39.594 29.641-59.445 44.516-12.25 9.1875-24.5 18.32-36.75 27.508-3.1172 2.3516-6.2344 4.7031-9.3516 7-2.625 1.9688-5.25 3.7734-7 6.7266-1.9141 3.2812-2.2422 6.7266-2.2422 10.336v86.57c0 6.8906-0.71094 13.781 4.8125 19.305 2.2969 2.2969 5.6875 4.375 8.3672 6.3438 10.773 8.0938 21.547 16.133 32.32 24.227l67.922 50.859 1.3125 0.98438c3.1719 2.4062 8.9688 2.6797 12.633 1.6406 3.8281-1.0391 7.9297-3.9922 9.7891-7.5469 2.0234-3.8281 3.0078-8.4219 1.6406-12.633-1.3125-4.375-3.8281-7.1641-7.4375-9.8438z"/>
		<path
			d="m194.3 144.7c0 1.2578-0.10938 2.5156-0.21875 3.7734 0.21875-1.4766 0.38281-2.8984 0.60156-4.375-0.38281 2.6797-1.0938 5.1953-2.1328 7.7109 0.54687-1.3125 1.0938-2.625 1.6406-3.9375-0.65625 1.5312-1.4219 3.0078-2.3516 4.375-2.1875 3.3359 2.2422-2.4609 0.4375-0.49219-0.54688 0.60156-1.0938 1.2578-1.6953 1.8047-0.60156 0.60156-1.2031 1.1484-1.8047 1.6953-2.0781 1.8594 3.7188-2.4062 0.76562-0.65625-1.5312 0.92969-3.0625 1.8047-4.7031 2.5703l3.9375-1.6406c-2.5156 1.0391-5.0312 1.75-7.7109 2.1328 1.4766-0.21875 2.8984-0.38281 4.375-0.60156-2.5156 0.27344-4.9766 0.27344-7.4922 0 1.4766 0.21875 2.8984 0.38281 4.375 0.60156-2.6797-0.38281-5.1953-1.0938-7.7109-2.1328l3.9375 1.6406c-1.5312-0.65625-3.0078-1.4219-4.375-2.3516-3.3359-2.1875 2.4609 2.2422 0.49219 0.4375-0.60156-0.54687-1.2578-1.0938-1.8047-1.6953-0.60156-0.60156-1.1484-1.2031-1.6953-1.8047-1.8594-2.0781 2.4062 3.7188 0.65625 0.76563-0.92969-1.5312-1.8047-3.0625-2.5703-4.7031 0.54688 1.3125 1.0938 2.625 1.6406 3.9375-1.0391-2.5156-1.75-5.0312-2.1328-7.7109 0.21875 1.4766 0.38281 2.8984 0.60156 4.375-0.27344-2.5156-0.27344-4.9766 0-7.4922-0.21875 1.4766-0.38281 2.8984-0.60156 4.375 0.38281-2.6797 1.0938-5.1953 2.1328-7.7109-0.54688 1.3125-1.0938 2.625-1.6406 3.9375 0.65625-1.5312 1.4219-3.0078 2.3516-4.375 2.1875-3.3359-2.2422 2.4609-0.4375 0.49219 0.54688-0.60156 1.0938-1.2578 1.6953-1.8047 0.60156-0.60156 1.2031-1.1484 1.8047-1.6953 2.0781-1.8594-3.7188 2.4062-0.76562 0.65625 1.5312-0.92969 3.0625-1.8047 4.7031-2.5703l-3.9375 1.6406c2.5156-1.0391 5.0312-1.75 7.7109-2.1328-1.4766 0.21875-2.8984 0.38281-4.375 0.60156 2.5156-0.27344 4.9766-0.27344 7.4922 0-1.4766-0.21875-2.8984-0.38281-4.375-0.60156 2.6797 0.38281 5.1953 1.0938 7.7109 2.1328l-3.9375-1.6406c1.5312 0.65625 3.0078 1.4219 4.375 2.3516 3.3359 2.1875-2.4609-2.2422-0.49219-0.4375 0.60156 0.54687 1.2578 1.0938 1.8047 1.6953 0.60156 0.60156 1.1484 1.2031 1.6953 1.8047 1.8594 2.0781-2.4062-3.7188-0.65625-0.76563 0.92969 1.5312 1.8047 3.0625 2.5703 4.7031-0.54687-1.3125-1.0938-2.625-1.6406-3.9375 1.0391 2.5156 1.75 5.0312 2.1328 7.7109-0.21875-1.4766-0.38281-2.8984-0.60156-4.375 0.10937 1.2031 0.21875 2.4609 0.21875 3.7188 0.10937 8.5859 7.4922 16.789 16.406 16.406 8.8047-0.38281 16.516-7.2188 16.406-16.406-0.10938-8.8594-2.5703-18.047-7.7656-25.32-5.9609-8.3672-13.562-14.164-23.188-17.719-16.516-6.1797-37.242-0.4375-48.508 13.016-6.7266 7.9844-10.336 17.008-11.266 27.398-0.76562 8.8047 1.75 18.375 6.2891 25.867 4.4297 7.3281 11.156 13.891 18.977 17.445 9.5703 4.375 19.25 5.5781 29.641 3.6641 20.891-3.7734 35.602-23.789 35.875-44.406 0.10938-8.5859-7.6016-16.789-16.406-16.406-9.0234 0.4375-16.352 7.2188-16.461 16.461z"/>
		<path
			d="m359.62 120.37c0 2.2969-0.16406 4.5391-0.4375 6.7812 0.21875-1.4766 0.38281-2.8984 0.60156-4.375-0.65625 4.8672-1.9141 9.5703-3.8281 14.109 0.54687-1.3125 1.0938-2.625 1.6406-3.9375-1.3125 3.0625-2.8984 6.0156-4.8125 8.8047-0.38281 0.60156-0.82031 1.1484-1.2578 1.75-1.5312 2.2422 2.9531-3.5547 0.38281-0.49219-0.98437 1.2031-2.0234 2.2969-3.1172 3.3906s-2.2422 2.1328-3.3906 3.1172c-3.0625 2.5703 2.7344-1.9141 0.49219-0.38281-0.60156 0.38281-1.1484 0.82031-1.75 1.2578-2.7891 1.8594-5.7422 3.4453-8.8047 4.8125l3.9375-1.6406c-4.5391 1.9141-9.2422 3.1719-14.109 3.8281 1.4766-0.21875 2.8984-0.38281 4.375-0.60156-4.5391 0.54688-9.0781 0.54688-13.617 0 1.4766 0.21875 2.8984 0.38281 4.375 0.60156-4.8672-0.65625-9.5703-1.9141-14.109-3.8281l3.9375 1.6406c-3.0625-1.3125-6.0156-2.8984-8.8047-4.8125-0.60156-0.38281-1.1484-0.82031-1.75-1.2578-2.2422-1.5312 3.5547 2.9531 0.49219 0.38281-1.2031-0.98438-2.2969-2.0234-3.3906-3.1172s-2.1328-2.2422-3.1172-3.3906c-2.5703-3.0625 1.9141 2.7344 0.38281 0.49219-0.38281-0.60156-0.82031-1.1484-1.2578-1.75-1.8594-2.7891-3.4453-5.7422-4.8125-8.8047l1.6406 3.9375c-1.9141-4.5391-3.1719-9.2422-3.8281-14.109 0.21875 1.4766 0.38281 2.8984 0.60156 4.375-0.54687-4.5391-0.54687-9.0781 0-13.617-0.21875 1.4766-0.38281 2.8984-0.60156 4.375 0.65625-4.8672 1.9141-9.5703 3.8281-14.109l-1.6406 3.9375c1.3125-3.0625 2.8984-6.0156 4.8125-8.8047 0.38281-0.60156 0.82031-1.1484 1.2578-1.75 1.5312-2.2422-2.9531 3.5547-0.38281 0.49219 0.98438-1.2031 2.0234-2.2969 3.1172-3.3906s2.2422-2.1328 3.3906-3.1172c3.0625-2.5703-2.7344 1.9141-0.49219 0.38281 0.60156-0.38281 1.1484-0.82031 1.75-1.2578 2.7891-1.8594 5.7422-3.4453 8.8047-4.8125-1.3125 0.54688-2.625 1.0938-3.9375 1.6406 4.5391-1.9141 9.2422-3.1719 14.109-3.8281-1.4766 0.21875-2.8984 0.38281-4.375 0.60156 4.5391-0.54688 9.0781-0.54688 13.617 0-1.4766-0.21875-2.8984-0.38281-4.375-0.60156 4.8672 0.65625 9.5703 1.9141 14.109 3.8281-1.3125-0.54688-2.625-1.0938-3.9375-1.6406 3.0625 1.3125 6.0156 2.8984 8.8047 4.8125 0.60156 0.38281 1.1484 0.82031 1.75 1.2578 2.2422 1.5312-3.5547-2.9531-0.49219-0.38281 1.2031 0.98438 2.2969 2.0234 3.3906 3.1172s2.1328 2.2422 3.1172 3.3906c2.5703 3.0625-1.9141-2.7344-0.38281-0.49219 0.38281 0.60156 0.82031 1.1484 1.2578 1.75 1.8594 2.7891 3.4453 5.7422 4.8125 8.8047-0.54687-1.3125-1.0938-2.625-1.6406-3.9375 1.9141 4.5391 3.1719 9.2422 3.8281 14.109-0.21875-1.4766-0.38281-2.8984-0.60156-4.375 0.27344 2.2969 0.4375 4.5391 0.4375 6.8359 0.054688 8.5859 7.4922 16.789 16.406 16.406 8.8594-0.38281 16.461-7.2188 16.406-16.406-0.10938-13.945-4.2109-28.438-12.523-39.812-8.9141-12.195-20.398-21-34.617-26.195-26.031-9.4609-57.969-0.875-75.523 20.617-9.7344 11.922-15.367 25.43-16.68 40.797-1.2031 13.891 2.5703 28.602 9.7891 40.469 7 11.539 17.555 21.492 29.914 27.07 14.273 6.3984 29.367 8.2578 44.734 5.1953 31.828-6.3438 54.688-36.203 54.906-68.141 0.054688-8.5859-7.6016-16.789-16.406-16.406-8.9141 0.38281-16.352 7.2188-16.406 16.406z"/>


	</g>
</svg>
