<?xml version="1.0" standalone="no"?>
<!DOCTYPE svg PUBLIC "-//W3C//DTD SVG 20010904//EN"
 "http://www.w3.org/TR/2001/REC-SVG-20010904/DTD/svg10.dtd">
<svg version="1.0" xmlns="http://www.w3.org/2000/svg"
 width="736.000000pt" height="736.000000pt" viewBox="0 0 736.000000 736.000000"
 preserveAspectRatio="xMidYMid meet">
<metadata>
Created by potrace 1.14, written by Peter Selinger 2001-2017
</metadata>
<g transform="translate(0.000000,736.000000) scale(0.100000,-0.100000)"
fill="#000000" stroke="none">
<path d="M3556 7018 c-51 -20 -128 -72 -158 -107 -39 -47 -70 -121 -109 -259
-23 -81 -57 -201 -76 -267 -19 -66 -35 -126 -36 -132 0 -7 -3 -13 -7 -13 -3 0
-6 -8 -7 -18 -1 -18 -49 -194 -60 -222 -4 -8 -7 -17 -8 -20 -70 -204 -247
-400 -440 -489 -60 -28 -97 -43 -110 -46 -6 -2 -44 -12 -85 -23 -41 -11 -88
-23 -105 -26 -16 -2 -39 -7 -50 -10 -11 -3 -38 -10 -60 -16 -22 -6 -49 -13
-60 -15 -11 -3 -29 -7 -40 -10 -31 -7 -233 -62 -295 -80 -30 -9 -59 -17 -65
-19 -39 -10 -194 -58 -210 -66 -11 -4 -63 -22 -115 -40 -52 -17 -104 -35 -115
-40 -11 -5 -45 -19 -75 -30 -30 -11 -64 -25 -75 -29 -11 -5 -45 -20 -75 -33
-30 -12 -92 -42 -139 -65 l-84 -43 -76 41 c-175 95 -291 206 -291 278 0 32 40
99 81 136 59 52 117 94 123 88 3 -4 6 -1 6 4 0 6 21 21 48 34 26 12 49 26 52
29 7 10 268 120 283 120 7 0 17 4 23 9 5 4 56 23 114 40 58 18 119 37 136 42
17 5 40 11 52 14 48 9 149 39 177 53 134 65 157 239 46 340 -39 35 -117 64
-153 56 -87 -19 -89 -20 -193 -48 -90 -24 -217 -62 -245 -73 -8 -3 -19 -7 -25
-8 -15 -4 -173 -64 -230 -88 -97 -41 -271 -134 -350 -186 -114 -76 -251 -218
-297 -307 -125 -239 -72 -489 149 -694 76 -71 100 -90 145 -119 43 -25 42 -27
-21 -96 -39 -43 -96 -147 -114 -206 -14 -44 -15 -179 -3 -234 16 -70 96 -214
161 -290 86 -100 206 -210 320 -293 39 -29 75 -56 82 -62 7 -5 17 -10 23 -10
5 0 10 -3 10 -8 0 -4 17 -16 37 -27 20 -11 42 -25 48 -31 6 -7 37 -27 69 -45
32 -19 70 -41 84 -50 34 -20 92 -53 162 -92 125 -69 531 -269 545 -268 3 1 25
-11 50 -24 25 -14 45 -24 45 -21 0 2 27 -9 60 -25 33 -16 62 -29 64 -29 2 0
21 -8 42 -17 22 -9 42 -18 47 -19 4 -1 10 -3 15 -4 4 -1 10 -2 15 -1 4 0 7 -3
7 -7 0 -4 17 -14 38 -21 20 -7 46 -16 57 -21 84 -36 119 -50 131 -50 8 0 14
-4 14 -8 0 -5 6 -9 13 -9 8 0 54 -19 103 -43 156 -75 283 -189 369 -332 43
-69 90 -181 101 -233 2 -11 8 -45 14 -75 6 -30 15 -73 20 -95 5 -22 11 -53 14
-70 2 -16 7 -41 10 -55 3 -14 8 -36 10 -50 3 -14 8 -36 12 -49 7 -23 6 -23
-47 -17 -30 4 -76 8 -104 11 -51 5 -147 16 -175 21 -8 1 -37 5 -65 8 -27 3
-63 8 -80 11 -16 3 -43 7 -60 10 -16 3 -39 7 -50 9 -69 13 -123 19 -145 17
-46 -4 -124 -49 -150 -87 -30 -44 -34 -63 -34 -135 0 -107 85 -187 214 -203
25 -3 56 -8 70 -11 59 -11 77 -15 115 -20 22 -2 58 -7 80 -11 56 -7 91 -11
160 -18 33 -3 78 -8 100 -11 44 -5 175 -16 217 -19 36 -2 49 -16 55 -62 2 -22
8 -52 13 -69 5 -16 11 -49 14 -73 3 -24 7 -46 10 -50 2 -4 7 -23 10 -42 3 -19
12 -68 20 -107 16 -74 22 -104 31 -158 13 -73 29 -133 47 -172 29 -62 99 -130
165 -161 49 -23 71 -27 143 -27 74 0 93 4 145 29 68 33 133 95 160 153 22 45
46 143 39 155 -3 4 -1 8 4 8 5 0 9 6 9 13 0 17 11 79 22 129 6 24 12 57 15 73
7 38 12 62 32 160 9 44 18 89 20 100 13 89 21 103 57 102 29 0 114 6 222 17
22 3 67 7 100 10 33 3 69 8 80 10 11 2 47 7 80 10 33 4 67 9 75 11 8 3 31 7
50 9 65 8 270 47 380 72 14 3 30 7 35 8 6 1 16 5 23 9 6 5 12 6 12 3 0 -2 24
2 53 10 28 8 59 17 67 19 60 16 158 48 230 75 47 17 90 33 95 34 74 22 354
167 363 188 2 4 10 8 18 8 8 0 14 4 14 9 0 5 9 12 19 16 46 14 241 228 241
264 0 6 5 11 10 11 6 0 10 9 10 19 0 11 4 22 9 25 30 19 48 228 27 311 -51
191 -212 371 -446 496 -25 13 -47 27 -50 30 -11 13 -82 31 -124 31 -113 0
-212 -104 -205 -215 6 -89 43 -139 151 -199 164 -91 268 -192 268 -260 0 -51
-68 -128 -177 -200 -57 -38 -125 -74 -268 -139 -27 -12 -196 -70 -217 -74 -9
-2 -27 -9 -40 -16 -13 -7 -23 -11 -23 -9 0 2 -60 -11 -133 -29 -74 -18 -142
-34 -153 -37 -10 -2 -28 -6 -38 -8 -11 -3 -41 -8 -68 -12 -26 -5 -50 -9 -53
-9 -10 -3 -105 -18 -125 -21 -11 -1 -20 -3 -20 -4 0 -1 -13 -3 -30 -5 -77 -8
-142 -16 -166 -20 -14 -3 -50 -7 -80 -10 -30 -2 -79 -7 -110 -10 -62 -6 -60
-8 -43 70 11 54 11 55 13 58 1 1 4 16 6 32 2 17 6 41 9 55 5 22 29 140 40 195
11 53 59 164 101 234 84 138 211 253 366 332 43 21 80 39 81 38 5 -1 201 75
273 107 22 10 45 19 50 20 11 3 181 76 235 102 19 9 37 17 40 18 8 1 125 56
261 123 70 33 132 61 138 61 6 0 11 4 11 9 0 5 17 16 38 25 142 59 604 347
679 422 8 8 17 14 21 14 18 1 204 181 268 260 60 74 127 194 145 260 19 69 19
183 1 248 -8 31 -20 60 -25 63 -5 3 -8 10 -8 15 1 12 -63 114 -91 144 -52 57
-52 56 -11 81 21 13 49 33 62 44 48 39 126 110 133 120 3 6 21 26 38 45 33 38
105 176 116 225 9 41 10 202 1 245 -10 45 -86 200 -98 200 -5 0 -9 6 -9 13 0
13 -107 123 -165 170 -85 69 -346 217 -426 242 -13 4 -42 16 -64 25 -54 24
-233 88 -267 96 -5 1 -9 2 -10 4 -2 1 -10 3 -18 5 -8 2 -49 14 -90 25 -111 32
-182 51 -205 56 -11 3 -38 9 -60 14 -58 13 -236 51 -265 56 -14 2 -47 9 -75
14 -80 15 -107 20 -160 26 -27 4 -53 8 -56 10 -3 2 -43 8 -90 14 -46 5 -95 12
-109 14 -14 3 -50 7 -80 11 -30 3 -71 8 -90 10 -82 12 -148 8 -185 -9 -35 -17
-103 -80 -106 -98 -4 -20 -5 -24 -10 -33 -25 -45 8 -171 56 -213 51 -44 81
-53 215 -67 25 -2 61 -6 80 -9 19 -3 58 -8 85 -11 28 -3 64 -8 80 -10 17 -3
46 -7 65 -10 55 -7 103 -15 130 -22 14 -3 36 -7 50 -8 35 -4 152 -27 265 -51
11 -3 31 -7 45 -9 14 -2 61 -14 105 -25 44 -12 91 -24 105 -26 14 -3 70 -19
125 -36 55 -17 102 -32 105 -33 61 -17 97 -28 105 -33 6 -4 12 -7 15 -8 23 -4
176 -69 255 -107 162 -79 304 -191 334 -265 19 -44 3 -94 -46 -151 -44 -50
-162 -136 -248 -179 l-61 -30 -75 36 c-108 53 -186 88 -249 112 -30 11 -70 28
-88 36 -46 21 -502 172 -542 179 -18 3 -40 9 -49 14 -9 4 -38 14 -66 20 -27 7
-57 15 -65 17 -121 31 -179 46 -195 50 -11 2 -47 11 -80 19 -33 8 -91 21 -130
30 -267 60 -483 217 -604 439 -31 57 -88 210 -97 263 -3 15 -7 30 -10 35 -3 4
-7 16 -9 25 -2 10 -19 74 -39 143 -20 69 -41 143 -47 165 -6 22 -18 61 -25 86
-8 25 -16 54 -19 65 -17 79 -58 192 -85 235 -40 62 -119 123 -191 148 -69 25
-177 24 -243 -1z"/>
<path d="M1391 2869 c-46 -10 -162 -91 -242 -169 -65 -63 -129 -148 -129 -169
0 -6 -4 -11 -10 -11 -5 0 -10 -9 -10 -19 0 -11 -4 -22 -9 -25 -31 -19 -48
-227 -26 -312 52 -202 225 -386 485 -516 25 -13 47 -25 50 -28 19 -19 119 -16
165 5 173 80 163 304 -18 393 -25 13 -49 27 -52 33 -4 5 -10 7 -14 4 -5 -2
-16 4 -26 15 -10 11 -22 20 -27 20 -22 0 -132 112 -149 152 -26 63 22 136 156
234 100 74 133 156 103 256 -13 44 -60 98 -105 121 -35 18 -98 25 -142 16z"/>
</g>
</svg>
