<svg width="260" height="136" viewBox="0 0 260 136" fill="none" xmlns="http://www.w3.org/2000/svg">
<path fill-rule="evenodd" clip-rule="evenodd" d="M55.6004 112.4H164.8C165.418 112.4 166.02 112.333 166.6 112.207C167.18 112.333 167.783 112.4 168.4 112.4H230.8C235.44 112.4 239.2 108.639 239.2 104C239.2 99.3607 235.44 95.5999 230.8 95.5999H223.6C218.961 95.5999 215.2 91.8391 215.2 87.1999C215.2 82.5607 218.961 78.7999 223.6 78.7999H246.4C251.04 78.7999 254.8 75.0391 254.8 70.3999C254.8 65.7607 251.04 61.9999 246.4 61.9999H220C224.64 61.9999 228.4 58.2391 228.4 53.5999C228.4 48.9607 224.64 45.1999 220 45.1999H143.2C147.84 45.1999 151.6 41.4391 151.6 36.7999C151.6 32.1607 147.84 28.3999 143.2 28.3999H74.8004C70.1612 28.3999 66.4004 32.1607 66.4004 36.7999C66.4004 41.4391 70.1612 45.1999 74.8004 45.1999H26.8004C22.1612 45.1999 18.4004 48.9607 18.4004 53.5999C18.4004 58.2391 22.1612 61.9999 26.8004 61.9999H56.8004C61.4396 61.9999 65.2004 65.7607 65.2004 70.3999C65.2004 75.0391 61.4396 78.7999 56.8004 78.7999H8.80039C4.1612 78.7999 0.400391 82.5607 0.400391 87.1999C0.400391 91.8391 4.1612 95.5999 8.80039 95.5999H55.6004C50.9612 95.5999 47.2004 99.3607 47.2004 104C47.2004 108.639 50.9612 112.4 55.6004 112.4ZM251.2 112.4C255.84 112.4 259.6 108.639 259.6 104C259.6 99.3607 255.84 95.5999 251.2 95.5999C246.561 95.5999 242.8 99.3607 242.8 104C242.8 108.639 246.561 112.4 251.2 112.4Z" fill="#CEDBF3"/>
<path fill-rule="evenodd" clip-rule="evenodd" d="M83.5347 118.549L78.6505 119.235C76.0254 119.604 73.5982 117.775 73.2292 115.15L59.8686 20.0842C59.4997 17.459 61.3287 15.0318 63.9539 14.6629L157.831 1.46927C160.456 1.10033 162.884 2.92936 163.253 5.55452C163.253 5.55452 164.107 11.633 164.401 13.7238" fill="white"/>
<path fill-rule="evenodd" clip-rule="evenodd" d="M86.5668 113.254L82.1318 113.884C79.748 114.223 77.5471 112.566 77.2159 110.182L65.2217 23.8727C64.8905 21.4893 66.5544 19.2825 68.9382 18.9437L154.183 6.82763C156.567 6.48882 158.768 8.14627 159.099 10.5296L160.13 17.9465C160.186 18.3479 163.868 44.9872 171.177 97.8645C171.544 100.52 169.713 102.973 167.087 103.344C167.059 103.348 167.031 103.352 167.003 103.355L86.5668 113.254Z" fill="#E8F0FE"/>
<path d="M83.5347 118.549L78.6505 119.235C76.0254 119.604 73.5982 117.775 73.2292 115.15L59.8686 20.0842C59.4997 17.459 61.3287 15.0318 63.9539 14.6629L157.831 1.46927C160.456 1.10032 162.884 2.92935 163.253 5.55452C163.253 5.55452 164.107 11.633 164.401 13.7238" stroke="#2F48D1" stroke-width="2.5" stroke-linecap="round"/>
<path d="M165.401 19.2549L166.001 22.9994" stroke="#2F48D1" stroke-width="2.5" stroke-linecap="round"/>
<path d="M99.6209 23.3636C99.7797 21.8532 101.133 20.7574 102.643 20.9161L198.515 30.9927C200.026 31.1514 201.121 32.5046 200.963 34.0151L190.761 131.08C190.602 132.591 189.249 133.687 187.738 133.528L91.8664 123.451C90.356 123.293 89.2602 121.939 89.419 120.429L99.6209 23.3636Z" fill="white" stroke="#2F48D1" stroke-width="2.5"/>
<path fill-rule="evenodd" clip-rule="evenodd" d="M108.095 34.1071C108.268 32.4593 109.744 31.2639 111.392 31.4371L187.771 39.4649C189.419 39.6381 190.614 41.1143 190.441 42.7621L183.668 107.207C183.494 108.855 182.018 110.05 180.37 109.877L103.991 101.849C102.343 101.676 101.148 100.2 101.321 98.5521L108.095 34.1071Z" fill="white"/>
<path fill-rule="evenodd" clip-rule="evenodd" d="M111.69 83.453L124.015 75.1406C125.648 74.0388 127.841 74.2908 129.182 75.7346L138.384 85.6407C138.742 86.0262 139.337 86.0683 139.746 85.7371L158.991 70.1432C160.839 68.646 163.577 69.0821 164.868 71.0792L177.329 90.3519L179.049 93.2222L178.208 103.177C178.16 103.737 177.66 104.148 177.101 104.086L108.346 96.4473C107.805 96.3872 107.411 95.9044 107.461 95.3617L108.385 85.3279L111.69 83.453Z" fill="#E8F0FE"/>
<path d="M109.338 34.2378C109.439 33.2766 110.3 32.5792 111.261 32.6803L187.64 40.7081C188.602 40.8091 189.299 41.6702 189.198 42.6314L182.424 107.076C182.323 108.038 181.462 108.735 180.501 108.634L104.122 100.606C103.161 100.505 102.463 99.644 102.564 98.6828L109.338 34.2378Z" stroke="#2F48D1" stroke-width="2.5"/>
<circle cx="126.438" cy="54.7374" r="7.2" transform="rotate(6 126.438 54.7374)" fill="#F3F7FF" stroke="#2F48D1" stroke-width="2.5"/>
<path d="M109.275 85.3087C113.998 82.0466 123.446 75.5226 123.446 75.5226C125.406 74.2004 128.037 74.5028 129.646 76.2353L138.255 85.5029C138.684 85.9654 139.399 86.016 139.889 85.6186L158.297 70.703C160.357 69.0341 163.38 69.3508 165.049 71.4105C165.156 71.5436 165.257 71.6824 165.35 71.8263C165.35 71.8263 176.112 88.9032 178.627 92.8935" stroke="#2F48D1" stroke-width="2.5" stroke-linecap="round"/>
</svg>
