<svg width="158" height="50" viewBox="0 0 158 50" fill="none" xmlns="http://www.w3.org/2000/svg">
<path fill-rule="evenodd" clip-rule="evenodd" d="M25 4C23.9642 4 23.0538 4.68668 22.7693 5.68266L21.4373 10.3443C20.8906 12.258 19.3055 13.6828 17.364 14.1206C11.3588 15.4749 4 17.8742 4 21.5C4 25.1957 11.645 28.8911 17.7095 31.2414C19.4345 31.9099 20.7275 33.3874 21.0903 35.2014L22.9068 44.284C23.1063 45.2818 23.9824 46 25 46C26.0176 46 26.8937 45.2818 27.0932 44.284L28.9097 35.2014C29.2725 33.3874 30.5655 31.9099 32.2905 31.2414C38.3549 28.8911 46 25.1957 46 21.5C46 17.8742 38.6413 15.4749 32.6359 14.1206C30.6945 13.6828 29.1094 12.258 28.5627 10.3443L27.2307 5.68266C26.9462 4.68668 26.0358 4 25 4Z" fill="url(#paint0_linear_2000_4985)"/>
<path fill-rule="evenodd" clip-rule="evenodd" d="M4.74219 23.5649C9.55681 25.5102 16.844 26.7501 25.0002 26.7501C33.1563 26.7501 40.4435 25.5102 45.2581 23.5649C43.1955 26.531 37.2208 29.3308 32.2906 31.2415C30.5658 31.91 29.2727 33.3875 28.9099 35.2014L27.0934 44.2841C26.8937 45.2819 26.0177 46.0001 25.0002 46.0001C23.9826 46.0001 23.1066 45.2819 22.9069 44.2841L21.0904 35.2014C20.7276 33.3875 19.4345 31.91 17.7097 31.2415C12.7795 29.3308 6.80479 26.531 4.74219 23.5649Z" fill="url(#paint1_linear_2000_4985)"/>
<path fill-rule="evenodd" clip-rule="evenodd" d="M32.1346 8.29267C31.4136 8.21833 30.7687 8.74259 30.6945 9.46365C30.6201 10.1847 31.1444 10.8295 31.8654 10.9038C35.8736 11.317 39.2404 12.0754 41.5655 13.0181C42.7331 13.4914 43.567 13.9832 44.0871 14.4458C44.6101 14.9114 44.6875 15.2251 44.6875 15.3748C44.6875 15.5771 44.5275 16.0727 43.4872 16.7574C42.4982 17.4083 40.9829 18.0404 39.0011 18.5815C38.3018 18.7722 37.8896 19.4939 38.0806 20.1932C38.2715 20.8925 38.993 21.3046 39.6923 21.1137C41.8051 20.5371 43.6163 19.815 44.9304 18.9502C46.193 18.1191 47.3125 16.937 47.3125 15.3748C47.3125 14.1909 46.6594 13.221 45.832 12.4848C45.0013 11.7457 43.8647 11.1177 42.5518 10.5854C39.9158 9.51671 36.2828 8.7203 32.1346 8.29267ZM11.8896 11.9388C12.5941 11.7679 13.0266 11.0584 12.8557 10.3539C12.6848 9.64946 11.9752 9.21693 11.2708 9.3878C8.89043 9.96523 6.8497 10.7092 5.37113 11.6086C3.96528 12.4638 2.6875 13.702 2.6875 15.3748C2.6875 16.8738 3.72082 18.0227 4.90519 18.8394C6.13021 19.6841 7.81698 20.3922 9.78326 20.9658C13.7332 22.1179 19.1128 22.8123 25 22.8123C27.8336 22.8123 30.5433 22.6514 33.0288 22.358C33.7488 22.2729 34.2635 21.6205 34.1784 20.9006C34.0935 20.1808 33.441 19.6661 32.7212 19.751C30.3429 20.0319 27.7361 20.1873 25 20.1873C19.2892 20.1873 14.1688 19.5105 10.5183 18.4458C8.6843 17.9109 7.29569 17.2992 6.39538 16.6783C5.45444 16.0294 5.3125 15.5669 5.3125 15.3748C5.3125 15.153 5.50902 14.5972 6.73537 13.8513C7.88901 13.1495 9.63838 12.4849 11.8896 11.9388ZM38.7132 29.6731C38.0652 29.3482 37.2766 29.6101 36.9516 30.2582C36.6268 30.9062 36.8888 31.6947 37.5368 32.0197C38.2827 32.3937 38.7895 32.7654 39.0938 33.0961C39.3915 33.4195 39.4375 33.6346 39.4375 33.7494C39.4375 33.8997 39.3474 34.2518 38.6999 34.7621C38.0673 35.2607 37.0706 35.767 35.7219 36.2166C33.0383 37.1112 29.2474 37.6869 25 37.6869C22.2059 37.6869 19.6002 37.4377 17.3735 37.0083C16.6618 36.8711 15.9735 37.3367 15.8363 38.0486C15.6989 38.7604 16.1648 39.4486 16.8765 39.5858C19.2831 40.0499 22.0565 40.3119 25 40.3119C29.4511 40.3119 33.5353 39.7125 36.5519 38.707C38.0534 38.2063 39.3633 37.5816 40.3247 36.8238C41.2713 36.0778 42.0625 35.0488 42.0625 33.7494C42.0625 32.7909 41.6254 31.9702 41.0251 31.3183C40.4317 30.6736 39.6258 30.1306 38.7132 29.6731ZM11.7113 32.445C12.3205 32.0521 12.4959 31.2399 12.1031 30.6306C11.7102 30.0214 10.8979 29.846 10.2887 30.2389C9.05288 31.0357 7.9375 32.1979 7.9375 33.7494C7.9375 34.7081 8.3747 35.5286 8.9749 36.1807C9.56831 36.8252 10.3741 37.3682 11.2868 37.8259C11.9348 38.1507 12.7234 37.8887 13.0483 37.2407C13.3732 36.5928 13.1112 35.8041 12.4632 35.4793C11.7172 35.1051 11.2106 34.7334 10.9061 34.4027C10.6085 34.0795 10.5625 33.8642 10.5625 33.7494C10.5625 33.5653 10.7104 33.0904 11.7113 32.445Z" fill="url(#paint2_linear_2000_4985)"/>
<path d="M58.864 32.784C59.3547 33.1467 59.9307 33.456 60.592 33.712C61.2747 33.9467 61.9467 34.1173 62.608 34.224C63.2693 34.3307 63.8133 34.384 64.24 34.384C66.352 34.384 67.952 33.9573 69.04 33.104C70.1493 32.2507 70.704 31.0667 70.704 29.552C70.704 28.6347 70.4373 27.8453 69.904 27.184C69.392 26.5013 68.7307 25.9147 67.92 25.424C67.1307 24.9333 66.2987 24.5493 65.424 24.272C64.8907 24.08 64.3467 23.8667 63.792 23.632C63.2587 23.376 63.0027 23.088 63.024 22.768C63.024 22.4053 63.1947 22.096 63.536 21.84C63.8987 21.5627 64.3467 21.424 64.88 21.424C65.584 21.424 66.256 21.52 66.896 21.712C67.536 21.904 68.2293 22.16 68.976 22.48L70.224 19.696C69.712 19.3333 69.1253 19.0347 68.464 18.8C67.8027 18.5653 67.152 18.384 66.512 18.256C65.8933 18.128 65.36 18.064 64.912 18.064C63.0347 18.064 61.552 18.4907 60.464 19.344C59.3973 20.176 58.864 21.328 58.864 22.8C58.864 23.6533 59.12 24.3893 59.632 25.008C60.1653 25.6267 60.8267 26.1493 61.616 26.576C62.4267 26.9813 63.2267 27.3227 64.016 27.6C64.6133 27.7707 65.104 27.9627 65.488 28.176C65.8933 28.3893 66.2027 28.624 66.416 28.88C66.6293 29.1147 66.736 29.3813 66.736 29.68C66.736 29.9787 66.5867 30.2347 66.288 30.448C66.0107 30.64 65.68 30.7893 65.296 30.896C64.912 30.9813 64.5387 31.024 64.176 31.024C63.792 31.024 63.376 30.9813 62.928 30.896C62.5013 30.8107 62.0533 30.6933 61.584 30.544C61.1147 30.3733 60.624 30.192 60.112 30L58.864 32.784ZM77.58 40.688V21.008L75.564 18.48H73.452V41.008L77.58 40.688ZM76.172 23.664C76.9187 22.9813 77.612 22.4693 78.252 22.128C78.892 21.7867 79.5853 21.616 80.332 21.616C81.1427 21.616 81.8147 21.8187 82.348 22.224C82.8813 22.608 83.2867 23.1413 83.564 23.824C83.8413 24.4853 83.98 25.264 83.98 26.16C83.98 27.0347 83.8413 27.8347 83.564 28.56C83.308 29.264 82.9027 29.8187 82.348 30.224C81.7933 30.6293 81.1213 30.832 80.332 30.832C79.6067 30.832 78.9133 30.6827 78.252 30.384C77.5907 30.064 76.8973 29.488 76.172 28.656L74.988 31.472C75.308 31.9627 75.7667 32.432 76.364 32.88C76.9613 33.328 77.612 33.6907 78.316 33.968C79.0413 34.2453 79.7133 34.384 80.332 34.384C82.0387 34.384 83.4787 34.0427 84.652 33.36C85.8253 32.656 86.7213 31.696 87.34 30.48C87.98 29.2427 88.3 27.8027 88.3 26.16C88.3 24.5173 87.98 23.088 87.34 21.872C86.7213 20.656 85.8253 19.7173 84.652 19.056C83.5 18.3947 82.1133 18.064 80.492 18.064C79.7667 18.064 79.0733 18.1813 78.412 18.416C77.7507 18.6507 77.132 18.9813 76.556 19.408C76.0013 19.8347 75.4787 20.3467 74.988 20.944L76.172 23.664ZM95.0458 34V18.48H90.8538V34H95.0458ZM92.9338 16.304C93.5738 16.304 94.1178 16.08 94.5658 15.632C95.0138 15.1627 95.2378 14.5973 95.2378 13.936C95.2378 13.2747 95.0031 12.72 94.5338 12.272C94.0858 11.824 93.5418 11.6 92.9018 11.6C92.2618 11.6 91.7178 11.824 91.2698 12.272C90.8218 12.72 90.5978 13.2747 90.5978 13.936C90.5978 14.5973 90.8218 15.1627 91.2698 15.632C91.7178 16.08 92.2724 16.304 92.9338 16.304ZM102.701 34V23.28C103.064 23.024 103.459 22.7467 103.885 22.448C104.333 22.1493 104.813 21.904 105.325 21.712C105.837 21.52 106.349 21.424 106.861 21.424C107.544 21.424 108.088 21.68 108.493 22.192C108.899 22.704 109.101 23.4613 109.101 24.464V34H113.261V24.272C113.261 23.0773 113.101 22.0107 112.781 21.072C112.483 20.112 111.949 19.3547 111.181 18.8C110.435 18.2453 109.357 17.968 107.949 17.968C107.395 17.968 106.776 18.0533 106.093 18.224C105.432 18.3733 104.739 18.6187 104.013 18.96C103.309 19.28 102.627 19.664 101.965 20.112L101.261 18.48H98.5413V34H102.701ZM127.002 31.088L128.986 34H131.162V11.408L127.002 11.76V31.088ZM127.866 28.784C127.119 29.4667 126.415 29.9787 125.754 30.32C125.114 30.6613 124.431 30.832 123.706 30.832C122.959 30.832 122.298 30.64 121.722 30.256C121.167 29.8507 120.74 29.3067 120.442 28.624C120.164 27.9413 120.026 27.1627 120.026 26.288C120.026 25.3707 120.164 24.5707 120.442 23.888C120.74 23.184 121.167 22.6293 121.722 22.224C122.276 21.8187 122.948 21.616 123.738 21.616C124.442 21.616 125.114 21.776 125.754 22.096C126.415 22.3947 127.13 22.96 127.898 23.792L129.05 20.976C128.73 20.4853 128.271 20.016 127.674 19.568C127.098 19.12 126.447 18.7573 125.722 18.48C125.018 18.2027 124.335 18.064 123.674 18.064C122.01 18.064 120.58 18.416 119.386 19.12C118.212 19.8027 117.306 20.7627 116.666 22C116.047 23.216 115.738 24.6453 115.738 26.288C115.738 27.9093 116.047 29.328 116.666 30.544C117.306 31.76 118.212 32.7093 119.386 33.392C120.559 34.0533 121.946 34.384 123.546 34.384C124.292 34.384 124.986 34.2667 125.626 34.032C126.287 33.7973 126.906 33.4667 127.482 33.04C128.058 32.592 128.58 32.08 129.05 31.504L127.866 28.784ZM139.458 34V11.408L135.33 11.76V34H139.458ZM157.211 27.472V26.192C157.211 24.72 156.955 23.3653 156.443 22.128C155.953 20.8907 155.185 19.9093 154.139 19.184C153.094 18.4373 151.761 18.064 150.139 18.064C148.539 18.064 147.153 18.4053 145.979 19.088C144.806 19.7493 143.899 20.6987 143.259 21.936C142.641 23.152 142.331 24.592 142.331 26.256C142.331 27.8987 142.662 29.3387 143.323 30.576C143.985 31.792 144.977 32.7307 146.299 33.392C147.643 34.0533 149.318 34.384 151.323 34.384C152.219 34.384 153.009 34.2987 153.691 34.128C154.395 33.9787 155.025 33.7653 155.579 33.488C156.155 33.1893 156.678 32.848 157.147 32.464L155.931 29.456C155.249 29.8613 154.555 30.192 153.851 30.448C153.147 30.704 152.337 30.832 151.419 30.832C150.395 30.832 149.563 30.6933 148.923 30.416C148.283 30.1387 147.793 29.7547 147.451 29.264C147.11 28.752 146.875 28.1547 146.747 27.472H157.211ZM146.779 24.688C146.907 24.0053 147.121 23.44 147.419 22.992C147.718 22.544 148.091 22.2027 148.539 21.968C148.987 21.7333 149.489 21.616 150.043 21.616C150.598 21.616 151.089 21.7333 151.515 21.968C151.963 22.1813 152.337 22.512 152.635 22.96C152.934 23.408 153.147 23.984 153.275 24.688H146.779Z" fill="white"/>
<defs>
<linearGradient id="paint0_linear_2000_4985" x1="24.9982" y1="-2.4645" x2="46.875" y2="32.1977" gradientUnits="userSpaceOnUse">
<stop stop-color="#B0E7FF"/>
<stop offset="1" stop-color="#3CADFF"/>
</linearGradient>
<linearGradient id="paint1_linear_2000_4985" x1="37.1556" y1="18.4656" x2="16.5878" y2="54.4001" gradientUnits="userSpaceOnUse">
<stop stop-color="#1E78FF"/>
<stop offset="1" stop-color="#5E85FA"/>
</linearGradient>
<linearGradient id="paint2_linear_2000_4985" x1="25" y1="2.94819" x2="30.6525" y2="43.5289" gradientUnits="userSpaceOnUse">
<stop stop-color="#9382FF"/>
<stop offset="1" stop-color="#B4C7FF"/>
</linearGradient>
</defs>
</svg>
