<svg width="300" height="192" viewBox="0 0 300 192" fill="none" xmlns="http://www.w3.org/2000/svg">
<g clip-path="url(#clip0_1087_21016)">
<path fill-rule="evenodd" clip-rule="evenodd" d="M75.483 139.25H184.526C185.143 139.25 185.745 139.184 186.324 139.057C186.903 139.184 187.504 139.25 188.121 139.25H250.431C255.064 139.25 258.819 135.495 258.819 130.862C258.819 126.23 255.064 122.475 250.431 122.475H243.242C238.609 122.475 234.854 118.719 234.854 114.087C234.854 109.454 238.609 105.699 243.242 105.699H266.009C270.641 105.699 274.397 101.943 274.397 97.3108C274.397 92.6782 270.641 88.9228 266.009 88.9228H239.647C244.279 88.9228 248.035 85.1674 248.035 80.5349C248.035 75.9024 244.279 72.147 239.647 72.147H162.957C167.59 72.147 171.345 68.3916 171.345 63.759C171.345 59.1265 167.59 55.3711 162.957 55.3711H94.6554C90.0229 55.3711 86.2675 59.1265 86.2675 63.759C86.2675 68.3916 90.0229 72.147 94.6554 72.147H46.7244C42.0919 72.147 38.3364 75.9024 38.3364 80.5349C38.3364 85.1674 42.0919 88.9228 46.7244 88.9228H76.6813C81.3138 88.9228 85.0692 92.6782 85.0692 97.3108C85.0692 101.943 81.3138 105.699 76.6813 105.699H28.7502C24.1177 105.699 20.3623 109.454 20.3623 114.087C20.3623 118.719 24.1177 122.475 28.7502 122.475H75.483C70.8505 122.475 67.0951 126.23 67.0951 130.862C67.0951 135.495 70.8505 139.25 75.483 139.25ZM270.802 139.25C275.435 139.25 279.19 135.495 279.19 130.863C279.19 126.23 275.435 122.475 270.802 122.475C266.169 122.475 262.414 126.23 262.414 130.863C262.414 135.495 266.169 139.25 270.802 139.25Z" fill="#CEDBF3"/>
<path fill-rule="evenodd" clip-rule="evenodd" d="M201.993 129.753C198.905 132.06 195.895 134.229 192.488 136.103L192.685 152.979C192.7 154.302 191.64 155.388 190.316 155.403C189.778 155.409 189.254 155.234 188.827 154.906L173.654 143.232C167.966 144.541 161.967 145.241 155.767 145.241C119.369 145.241 89.8623 121.099 89.8623 91.3189C89.8623 61.5384 119.369 37.3965 155.767 37.3965C192.166 37.3965 221.673 61.5384 221.673 91.3189C221.673 99.5615 219.412 107.372 215.371 114.359C214.626 115.647 213.82 116.908 212.956 118.138C212.956 118.138 211.268 120.677 207.893 124.272C204.517 127.866 201.993 129.753 201.993 129.753Z" fill="white"/>
<path fill-rule="evenodd" clip-rule="evenodd" d="M201.993 129.753C198.905 132.06 195.895 134.229 192.488 136.103L192.685 152.979C192.7 154.302 191.64 155.388 190.316 155.403C189.778 155.409 189.254 155.234 188.827 154.906L173.654 143.232C167.966 144.541 161.967 145.241 155.767 145.241C119.369 145.241 89.8623 121.099 89.8623 91.3189C89.8623 61.5384 119.369 37.3965 155.767 37.3965C192.166 37.3965 221.673 61.5384 221.673 91.3189C221.673 99.5615 219.412 107.372 215.371 114.359C214.626 115.647 213.82 116.908 212.956 118.138C212.956 118.138 211.268 120.677 207.893 124.272C204.517 127.866 201.993 129.753 201.993 129.753Z" stroke="#2F48D1" stroke-width="2.5" stroke-linecap="round"/>
<path fill-rule="evenodd" clip-rule="evenodd" d="M195.134 76.4475C201.491 76.4475 207.612 75.6896 213.346 74.2874C215.634 79.4995 216.88 85.1156 216.88 90.9681C216.88 98.5601 214.784 105.754 211.036 112.189C210.345 113.376 209.598 114.537 208.797 115.67C207.533 117.459 206.632 118.722 205.838 119.735C203.961 122.131 202.686 123.126 198.631 126.369C195.927 128.532 192.977 130.491 189.817 132.217L190 147.761C190.014 148.98 190.385 151.218 189.158 151.233C188.659 151.238 186.818 149.839 186.423 149.536L174.188 138.611C168.915 139.816 161.516 140.634 155.768 140.634C122.016 140.634 94.6555 118.398 94.6555 90.9681C94.6555 68.5048 113.005 49.5246 138.187 43.3877C144.782 62.4097 167.778 76.4475 195.134 76.4475ZM132.151 84.3068C128.19 84.3068 124.98 87.5379 124.98 91.5238C124.98 95.5096 128.19 98.7408 132.151 98.7408C136.111 98.7408 139.322 95.5096 139.322 91.5238C139.322 87.5379 136.111 84.3068 132.151 84.3068ZM154.858 84.3068C150.898 84.3068 147.688 87.5379 147.688 91.5238C147.688 95.5096 150.898 98.7408 154.858 98.7408C158.819 98.7408 162.029 95.5096 162.029 91.5238C162.029 87.5379 158.819 84.3068 154.858 84.3068ZM177.566 84.3068C173.606 84.3068 170.395 87.5379 170.395 91.5238C170.395 95.5096 173.606 98.7408 177.566 98.7408C181.526 98.7408 184.737 95.5096 184.737 91.5238C184.737 87.5379 181.526 84.3068 177.566 84.3068Z" fill="#E8F0FE"/>
<path fill-rule="evenodd" clip-rule="evenodd" d="M131.802 84.1299C135.773 84.1299 138.992 87.3488 138.992 91.3195C138.992 95.2903 135.773 98.5092 131.802 98.5092C127.831 98.5092 124.612 95.2903 124.612 91.3195C124.612 87.3488 127.831 84.1299 131.802 84.1299ZM154.569 84.1299C158.54 84.1299 161.759 87.3488 161.759 91.3195C161.759 95.2903 158.54 98.5092 154.569 98.5092C150.599 98.5092 147.38 95.2903 147.38 91.3195C147.38 87.3488 150.599 84.1299 154.569 84.1299ZM177.337 84.1299C181.307 84.1299 184.526 87.3488 184.526 91.3195C184.526 95.2903 181.307 98.5092 177.337 98.5092C173.366 98.5092 170.147 95.2903 170.147 91.3195C170.147 87.3488 173.366 84.1299 177.337 84.1299Z" fill="white" stroke="#2F48D1" stroke-width="2.5"/>
<path d="M107.432 73.7168C106.344 75.5525 105.401 77.4575 104.615 79.4218" stroke="#2F48D1" stroke-width="2.5" stroke-linecap="round"/>
<path d="M129.432 54.2607C121.58 58.0081 114.951 63.3091 110.16 69.6551" stroke="#2F48D1" stroke-width="2.5" stroke-linecap="round"/>
</g>
<defs>
<clipPath id="clip0_1087_21016">
<rect width="259.2" height="121.869" fill="white" transform="translate(20 35)"/>
</clipPath>
</defs>
</svg>
